<svg id="Layer_1" data-name="Layer 1" xmlns="http://www.w3.org/2000/svg" viewBox="0 0 439.77 159.76"><defs><style>.cls-1,.cls-5{fill:#00acec;}.cls-2{fill:#6997c8;}.cls-3{fill:#f3cc30;}.cls-4{fill:#b52d2b;}.cls-5{font-size:140px;font-family:?, Webnar;font-weight:700;}</style></defs><title>contest-acm-colors</title><path class="cls-1" d="M304.17,54.35h.52a13.77,13.77,0,0,1,3.45.48,15.41,15.41,0,0,1,3.09,1.11.83.83,0,0,1,.47.87v4.41a.48.48,0,0,1-.19.39.39.39,0,0,1-.42.06,15.18,15.18,0,0,0-5.34-1.59h-.28a5,5,0,0,0-3.74,1.49,6,6,0,0,0-1.44,4.32v2.2a6,6,0,0,0,1.44,4.32,5,5,0,0,0,3.74,1.49h.28a15.18,15.18,0,0,0,5.34-1.59.39.39,0,0,1,.42.06.48.48,0,0,1,.19.39v4.41a.83.83,0,0,1-.47.87,15.41,15.41,0,0,1-3.09,1.11,13.77,13.77,0,0,1-3.45.48h-.52a11.33,11.33,0,0,1-8-3q-3.21-3-3.21-8.44V65.74q0-5.46,3.21-8.43A11.3,11.3,0,0,1,304.17,54.35Z" transform="translate(-24.2 -15.34)"/><path class="cls-1" d="M343.13,54.35h.52a6.88,6.88,0,0,1,5.24,2,8,8,0,0,1,1.93,5.74V78.35a.56.56,0,0,1-.63.63h-5.86a.56.56,0,0,1-.63-.63V63.68a4.63,4.63,0,0,0-.64-2.74,2.64,2.64,0,0,0-2.26-.87h-.21a7.68,7.68,0,0,0-4.17,1.55,15.83,15.83,0,0,1,.09,2.06V78.35q0,.63-.61.63H330a.56.56,0,0,1-.63-.63V63.68a4.63,4.63,0,0,0-.64-2.74,2.67,2.67,0,0,0-2.29-.87h-.19a7.32,7.32,0,0,0-4,1.45V78.35q0,.63-.68.63h-5.86a.54.54,0,0,1-.61-.63V55.62q0-.63.61-.63h5.2a.52.52,0,0,1,.56.47l.4,2q3.61-3.12,7-3.12h.52q4.57,0,6.28,3.56Q339.57,54.35,343.13,54.35Z" transform="translate(-24.2 -15.34)"/><path class="cls-2" d="M41,89.28h.77a20.7,20.7,0,0,1,5.17.72,23.13,23.13,0,0,1,4.64,1.67,1.24,1.24,0,0,1,.7,1.3v6.61a.72.72,0,0,1-.28.58.59.59,0,0,1-.63.09q-5.41-2.39-8-2.39H42.9a7.46,7.46,0,0,0-5.61,2.23q-2.16,2.23-2.16,6.49v3.3q0,4.25,2.16,6.49a7.45,7.45,0,0,0,5.61,2.23h.42q2.6,0,8-2.39a.59.59,0,0,1,.63.09.72.72,0,0,1,.28.58v6.61a1.24,1.24,0,0,1-.7,1.3,23.07,23.07,0,0,1-4.64,1.67,20.65,20.65,0,0,1-5.17.72H41a17,17,0,0,1-12-4.43q-4.82-4.43-4.82-12.66v-3.73q0-8.19,4.82-12.64A17,17,0,0,1,41,89.28Z" transform="translate(-24.2 -15.34)"/><path class="cls-2" d="M70.56,89.28h.77a17.19,17.19,0,0,1,11.92,4.36Q88.1,98,88.1,105.55v5.34q0,7.56-4.85,11.92a17.18,17.18,0,0,1-11.92,4.36h-.77a17.18,17.18,0,0,1-11.92-4.36q-4.85-4.36-4.85-11.92v-5.34q0-7.56,4.85-11.92A17.19,17.19,0,0,1,70.56,89.28Zm.63,8.58h-.42a5.54,5.54,0,0,0-4.43,1.88,7.93,7.93,0,0,0-1.62,5.33v6.33a7.92,7.92,0,0,0,1.62,5.33,5.53,5.53,0,0,0,4.43,1.88h.42a5.45,5.45,0,0,0,4.36-1.88,7.93,7.93,0,0,0,1.62-5.33v-6.33a7.93,7.93,0,0,0-1.62-5.33A5.46,5.46,0,0,0,71.19,97.86Z" transform="translate(-24.2 -15.34)"/><path class="cls-2" d="M110.91,89.28h.77a11.08,11.08,0,0,1,8.17,3.06q3.08,3.06,3.08,8.61v24.33a.84.84,0,0,1-.95.95h-8.79a.81.81,0,0,1-.91-.95v-22a6.07,6.07,0,0,0-1.16-4.11,4.82,4.82,0,0,0-3.76-1.3h-.28a11,11,0,0,0-6,2.18v25.24q0,.95-1,.95H91.22a.81.81,0,0,1-.91-.95V91.18q0-.95.91-.95H99a.78.78,0,0,1,.84.7l.6,3Q105.88,89.28,110.91,89.28Z" transform="translate(-24.2 -15.34)"/><path class="cls-3" d="M139,81.51v8.72h8q1,0,1,.95v6.4q0,.95-1,.95h-8v16.38q0,3.66,3,3.69h.35a23.31,23.31,0,0,0,4.61-1.09.72.72,0,0,1,1,.74v6a1,1,0,0,1-.74,1.05,18.2,18.2,0,0,1-7.31,1.9h-.74q-5.17,0-8-2.74a9.91,9.91,0,0,1-2.85-7.49V98.52H124.5a.81.81,0,0,1-.91-.95V92.16q0-.63.91-.91l3.83-1V83.9a1.33,1.33,0,0,1,1.09-1.51l8.33-1.86a.93.93,0,0,1,.86.14A1,1,0,0,1,139,81.51Z" transform="translate(-24.2 -15.34)"/><path class="cls-3" d="M164.78,89.28h.77a14.93,14.93,0,0,1,10.83,4.08q4.22,4.08,4.22,11.71v3.8a1.49,1.49,0,0,1-.42,1.07,1.44,1.44,0,0,1-1.09.44H159.29v1.16a6.8,6.8,0,0,0,2.13,5.43,8.3,8.3,0,0,0,5.64,1.85h.35q3.59,0,10.51-2.6a.63.63,0,0,1,.65.09.71.71,0,0,1,.3.58v6.61a1.22,1.22,0,0,1-.81,1.3,24.3,24.3,0,0,1-5.5,1.63,34,34,0,0,1-6.73.76h-.7A17.15,17.15,0,0,1,153,122.82q-4.71-4.36-4.71-12.45V106.5q0-8,4.75-12.6A16.18,16.18,0,0,1,164.78,89.28Zm.42,7.8h-.28a4.91,4.91,0,0,0-4.08,1.86,9,9,0,0,0-1.62,5.31h11.46Q170.9,97.08,165.2,97.08Z" transform="translate(-24.2 -15.34)"/><path class="cls-4" d="M193.56,119.62q4.82,0,4.82-3.09v-.25a2.19,2.19,0,0,0-.83-1.9,11.23,11.23,0,0,0-2.83-1.27l-2.46-.77q-7.7-2.78-9.42-6.71A11.21,11.21,0,0,1,182,101v-.42A10.15,10.15,0,0,1,184,94.3q3.94-5,11.46-5h.74a29.91,29.91,0,0,1,5.55.54A17.34,17.34,0,0,1,206,91a1.2,1.2,0,0,1,.81,1.27v6.29a.65.65,0,0,1-.28.6.73.73,0,0,1-.67,0q-5.62-2.39-8.61-2.39h-.18a6.31,6.31,0,0,0-3.27.76,2.36,2.36,0,0,0-1.27,2.13v.21a1.85,1.85,0,0,0,.33,1.25c.22.25.37.42.44.51a1.08,1.08,0,0,0,.39.28l.44.21.51.21.49.21a4.57,4.57,0,0,0,.58.21,2.24,2.24,0,0,1,.58.25l2.46.77a19.82,19.82,0,0,1,7.8,4.22q2.53,2.5,2.53,7.38v.49a9.61,9.61,0,0,1-4.17,8.26,17.31,17.31,0,0,1-10.35,3h-.53a34.84,34.84,0,0,1-5.87-.58,21.89,21.89,0,0,1-4.46-1.09,1.55,1.55,0,0,1-1.09-1.49v-6.22a.74.74,0,0,1,.28-.63.61.61,0,0,1,.63-.07q6.19,2.53,9.6,2.53Z" transform="translate(-24.2 -15.34)"/><path class="cls-4" d="M227.9,118.6h-.35q-3,0-3-3.69V98.52h8q1,0,1-.95v-6.4q0-.95-1-.95h-8V81.51a1,1,0,0,0-.37-.84.93.93,0,0,0-.86-.14L215,82.39a1.33,1.33,0,0,0-1.09,1.51v6.33l-3.83,1q-.91.28-.91.91v5.41a.81.81,0,0,0,.91.95h3.83v18.42a9.91,9.91,0,0,0,2.85,7.49q2.85,2.74,8,2.74h.74c.34,0,.69,0,1-.06l2.28-8.63A5.25,5.25,0,0,1,227.9,118.6Z" transform="translate(-24.2 -15.34)"/><text class="cls-5" transform="translate(205.32 119.01)">/</text><path class="cls-1" d="M280.27,54.35H280a26.33,26.33,0,0,0-5.23.58l-1.57,6,.4-.1q.3-.07,1.68-.48a11.2,11.2,0,0,1,3.2-.41h.09a4.3,4.3,0,0,1,3,.84,4,4,0,0,1,.89,3v.47l-3.37.26c-3.27.23-5.72.91-7.36,2l-2.34,8.94a6.83,6.83,0,0,0,1.31,2.15,6.41,6.41,0,0,0,5,2H276a9.9,9.9,0,0,0,6.87-3.19l.37,2.09a.6.6,0,0,0,.59.47H289a.56.56,0,0,0,.63-.63V63.47Q289.53,54.35,280.27,54.35Zm2.23,18.26a5.3,5.3,0,0,1-3.42,1.57h-.23a2.74,2.74,0,0,1-2-.74,2.49,2.49,0,0,1-.77-1.89v-.21q0-2.84,4-2.88l2.41,0Z" transform="translate(-24.2 -15.34)"/><path class="cls-1" d="M410.51,77.54A11.45,11.45,0,1,1,422,89,11.45,11.45,0,0,1,410.51,77.54Zm11.46-42V42.7a.48.48,0,0,0,.5.48,34.36,34.36,0,0,1,0,68.71.48.48,0,0,0-.5.48v6.68a.48.48,0,0,0,.43.47,42,42,0,0,0-.43-84Zm-.43-7.63a49.65,49.65,0,0,0-48.23,39.78.48.48,0,0,0,.38.57l6.54,1.26a.48.48,0,0,0,.58-.39A42,42,0,0,1,422,35.54V28.38A.48.48,0,0,0,421.54,27.91Zm.43,22.9a26.64,26.64,0,0,0-18.56,7.5.48.48,0,0,0,0,.68l4.72,4.72a.48.48,0,0,0,.69,0,19.09,19.09,0,1,1,0,27.69.48.48,0,0,0-.69,0l-4.73,4.73a.47.47,0,0,0,0,.65A26.73,26.73,0,1,0,422,50.82Z" transform="translate(-24.2 -15.34)"/><rect class="cls-1" x="281.32" y="73.66" width="7.63" height="38.18" rx="0.48" ry="0.48"/><path class="cls-1" d="M373.55,98.54c0-2.24,2.06-3.49,4.89-3.49a11,11,0,0,1,6.75,2.25.49.49,0,0,0,.68-.16L388.42,92a.49.49,0,0,0-.17-.68c-2.25-1.56-5.23-3-10.36-3-7,0-11.89,4.42-11.89,10.15,0,11.45,17.1,11.37,17.1,18.42,0,2.84-2.74,4.09-5.64,4.09a10.72,10.72,0,0,1-7.81-3.82.49.49,0,0,0-.7,0l-3.71,4.45a.48.48,0,0,0,0,.55c2.16,3.18,7.7,5.72,12.42,5.72,8.51,0,13.37-4.56,13.37-11C391,104.27,373.55,104.27,373.55,98.54Z" transform="translate(-24.2 -15.34)"/><path class="cls-1" d="M327.74,98.54c0-2.24,2.06-3.49,4.89-3.49a11,11,0,0,1,6.76,2.25.49.49,0,0,0,.68-.16L342.61,92a.49.49,0,0,0-.17-.68c-2.25-1.56-5.23-3-10.36-3-7,0-11.89,4.42-11.89,10.15,0,11.45,17.1,11.37,17.1,18.42,0,2.84-2.74,4.09-5.64,4.09a10.72,10.72,0,0,1-7.81-3.82.48.48,0,0,0-.7,0l-3.71,4.45a.48.48,0,0,0,0,.55c2.16,3.18,7.7,5.72,12.42,5.72,8.5,0,13.37-4.56,13.37-11C345.18,104.27,327.74,104.27,327.74,98.54Z" transform="translate(-24.2 -15.34)"/><rect class="cls-1" x="327.14" y="73.66" width="7.63" height="38.18" rx="0.48" ry="0.48"/><path class="cls-1" d="M295.5,89h-6.66a1,1,0,0,0-.78.41l-11.17,16L266.48,90.49l-8.68,33.12v3.1a.47.47,0,0,0,.48.47H265a.48.48,0,0,0,.48-.48V113.81L264.86,101h.57l10.84,15.48h1.23L288.34,101h.57l-.57,12.81V126.7a.48.48,0,0,0,.48.48h6.68a.48.48,0,0,0,.48-.47V89.47A.48.48,0,0,0,295.5,89Z" transform="translate(-24.2 -15.34)"/></svg>