<?xml version="1.0" encoding="utf-8"?>
<!DOCTYPE svg PUBLIC "-//W3C//DTD SVG 1.1//EN" "http://www.w3.org/Graphics/SVG/1.1/DTD/svg11.dtd">
<svg version="1.1" id="Слой_1" xmlns="http://www.w3.org/2000/svg" xmlns:xlink="http://www.w3.org/1999/xlink" x="0px" y="0px"
	 width="1068px" height="500px" viewBox="0 0 1068 500" enable-background="new 0 0 1068 500" xml:space="preserve">
<path fill="#26A9E1" d="M164.311,44.481c7.605,0,15.21-0.032,22.815,0.009c8.541,0.046,11.877,4.195,9.722,12.508
	c-9.519,36.73-19.112,73.44-28.726,110.146C141.431,269.046,114.71,370.94,88.017,472.842c-3.504,13.377-5.669,15.098-19.491,15.098
	c-13.218,0-26.437,0.02-39.655-0.007c-9.796-0.02-13.154-4.294-10.675-13.725c24.527-93.307,49.079-186.608,73.623-279.91
	c12.137-46.135,24.272-92.27,36.412-138.403c2.457-9.335,5.15-11.396,14.894-11.412C150.187,44.471,157.249,44.481,164.311,44.481z"
	/>
<path fill="#26A9E1" d="M1051.198,223.433c-0.001,107.332-67.779,186.533-160.749,201.368c-8.013,1.279-16.191,1.51-24.286,2.284
	c-3.542,0.339-4.834-1.17-4.762-4.696c0.164-7.964,0.24-15.939-0.025-23.898c-0.147-4.428,1.274-5.8,5.857-5.983
	c41.053-1.644,76.748-16.665,104.998-46.376c42.585-44.788,55.928-98.114,36.95-156.89c-18.833-58.328-60.495-93.2-120.688-105.557
	c-7.282-1.495-14.664-2.358-22.098-2.196c-3.861,0.084-5.067-1.507-4.995-5.173c0.162-8.326,0.215-16.662-0.026-24.984
	c-0.103-3.569,0.921-4.546,4.542-4.412c48.462,1.786,90.788,18.755,125.901,52.185
	C1031.123,136.524,1050.573,182.896,1051.198,223.433z"/>
<path fill="#26A9E1" d="M849.036,116.211c76.964,0.042,130.056,50.93,132.883,115.274c3.209,73.046-57.902,132.006-130.861,125.98
	c-27.004-2.23-50.6-12.775-70.881-30.799c-3.181-2.827-4.043-4.854-0.36-8.141c5.667-5.057,11.025-10.498,16.145-16.112
	c2.984-3.272,4.867-3.257,8.287-0.308c27.911,24.067,65.443,28.315,97.704,11.361c33.411-17.558,51.792-55.964,44.422-92.819
	c-7.542-37.718-37.99-65.725-75.656-69.657c-25.322-2.643-47.576,4.523-66.733,21.118c-3.229,2.797-5.054,2.755-7.878-0.313
	c-5.148-5.591-10.497-11.034-16.142-16.119c-3.775-3.401-3.078-5.457,0.413-8.527C803.65,126.691,830.702,116.377,849.036,116.211z"
	/>
<path fill="#26A9E1" d="M156.476,295.175c16.179,23.125,31.717,45.332,47.239,67.518c2.178-0.735,2.79-2.592,3.79-4.017
	c15.179-21.628,30.373-43.244,45.398-64.979c2.295-3.32,4.75-4.913,8.9-4.745c7.595,0.309,15.221,0.329,22.814-0.004
	c4.472-0.196,5.866,1.149,5.83,5.736c-0.209,26.261-0.102,52.524-0.102,78.787c0,27.53-0.093,55.061,0.092,82.59
	c0.03,4.529-1.34,6.056-5.859,5.875c-7.595-0.305-15.217-0.27-22.815-0.012c-4.344,0.148-5.513-1.522-5.53-5.715
	c-0.143-35.485,0.102-70.956,2.32-106.39c0.137-2.181,1.351-5.588-0.872-6.392c-2.97-1.074-3.753,2.725-5.092,4.621
	c-14.409,20.4-28.694,40.888-43.029,61.341c-3.809,5.435-6.873,5.445-10.649,0.058c-14.647-20.898-29.266-41.815-43.955-62.683
	c-1.05-1.491-1.692-4.338-4.174-3.404c-2.018,0.76-0.95,3.206-0.863,4.879c1.851,35.802,2.602,71.624,2.32,107.475
	c-0.037,4.69-1.205,6.468-6.078,6.231c-7.409-0.359-14.855-0.302-22.27-0.016c-4.467,0.172-5.702-1.368-6.052-5.863
	c-1.23-15.824,4.34-30.307,8.166-45.119c9.672-37.447,19.554-74.839,29.358-112.252
	C155.581,297.869,155.878,297.062,156.476,295.175z"/>
<path fill="#26A9E1" d="M412.567,146.003c2.684-1.97,4.952-3.663,7.249-5.315c11.254-8.089,23.622-10.45,37.056-7.082
	c6.771,1.698,12.342,5.346,15.93,11.346c1.897,3.172,3.143,2.822,5.56,0.679c10.095-8.95,21.46-14.487,35.486-13.373
	c17.138,1.361,28.83,12.123,29.35,29.648c0.762,25.689,0.299,51.414,0.422,77.124c0.016,3.306-1.448,4.444-4.629,4.389
	c-7.241-0.124-14.492-0.234-21.725,0.036c-4.278,0.16-5.641-1.342-5.603-5.62c0.182-20.278,0.084-40.559,0.075-60.839
	c-0.001-1.809,0.018-3.627-0.145-5.425c-1.052-11.565-6.974-15.885-18.436-13.489c-1.061,0.222-2.117,0.485-3.157,0.791
	c-10.428,3.067-11.332,4.281-11.331,15.088c0.002,21.004-0.133,42.01,0.099,63.011c0.055,4.963-1.352,6.827-6.469,6.507
	c-6.493-0.406-13.045-0.364-19.545-0.012c-4.91,0.266-6.178-1.703-6.137-6.325c0.186-21.184,0.095-42.37,0.076-63.555
	c-0.012-13.405-6.451-18.401-19.516-15.198c-0.878,0.215-1.767,0.401-2.627,0.675c-9.942,3.166-10.466,3.89-10.466,14.338
	c0,21.366-0.103,42.733,0.084,64.098c0.039,4.468-1.276,6.171-5.874,5.964c-7.048-0.316-14.124-0.229-21.18-0.026
	c-3.839,0.111-5.053-1.47-5.045-5.138c0.077-32.773,0.075-65.547,0.004-98.321c-0.008-3.689,1.335-5.272,5.106-5.156
	c5.608,0.174,11.246,0.343,16.832-0.048c4.732-0.331,7.189,1.192,7.419,6.067C411.503,142.382,412.085,143.896,412.567,146.003z"/>
<path fill="#26A9E1" d="M661.704,465.51c-20.594-1.138-38.87-7.161-53.792-21.724c-3.54-3.455-4.581-6.259-0.581-10.276
	c4.2-4.216,7.922-8.957,11.483-13.744c2.733-3.674,4.659-3.802,7.967-0.431c10.427,10.623,23.009,15.994,38.179,14.515
	c11.071-1.079,18.974-7.012,20.2-15.669c1.094-7.727-2.209-13.739-7.799-18.689c-7.677-6.799-16.941-11.034-25.881-15.777
	c-9.274-4.919-18.533-9.841-26.585-16.716c-13.674-11.674-19.709-26.345-15.916-44.035c3.76-17.54,15.576-28.554,32.279-33.447
	c22.367-6.553,43.991-3.804,64.258,8.196c3.363,1.992,4.642,3.74,2.349,7.631c-3.297,5.593-6.13,11.492-8.75,17.441
	c-1.73,3.93-3.52,4.192-6.909,1.833c-9.742-6.781-20.707-9.272-32.457-8.203c-6.113,0.556-11.759,2.427-15.534,7.714
	c-4.214,5.902-2.927,13.502,3.134,18.983c4.748,4.293,10.395,7.182,16.05,10.046c12.735,6.45,25.876,12.174,37.127,21.237
	c20.896,16.834,26.728,45.27,13.3,66.616c-8.941,14.214-22.899,20.499-38.845,23.11C670.527,464.85,665.993,465.075,661.704,465.51z
	"/>
<path fill="#26A9E1" d="M513.261,415.739c-0.372,20.49-9.631,35.652-28.63,43.312c-29.349,11.832-56.697,7.121-81.435-12.612
	c-0.846-0.675-1.621-1.45-2.37-2.234c-5.246-5.488-5.234-5.487-0.266-11.408c3.723-4.437,7.578-8.775,11.086-13.377
	c2.428-3.186,4.123-3.519,7.166-0.445c10.571,10.677,23.188,16.372,38.593,14.903c10.982-1.047,18.615-6.711,20.246-15.632
	c1.213-6.633-1.385-12.042-5.811-16.735c-6.981-7.401-16.09-11.61-24.869-16.249c-9.443-4.989-18.942-9.857-27.413-16.443
	c-14.661-11.398-21.726-26.257-18.27-44.726c3.426-18.307,15.529-29.7,32.955-34.698c22.434-6.434,43.999-3.443,64.223,8.55
	c3.383,2.006,3.956,3.83,1.947,7.322c-3.151,5.475-5.928,11.194-8.476,16.98c-1.815,4.122-3.55,4.938-7.557,2.163
	c-9.739-6.744-20.783-9.082-32.527-7.991c-11.342,1.054-17.83,7.509-17.296,16.878c0.327,5.727,4.133,9.104,8.213,12.152
	c6.702,5.006,14.37,8.337,21.828,12.021c11.857,5.856,23.589,11.879,33.201,21.283C508.188,388.917,513.448,401.132,513.261,415.739
	z"/>
<path fill="#26A9E1" d="M860.983,29.792c0.001,3.984-0.302,7.998,0.083,11.945c0.417,4.269-1.429,5.102-5.242,5.15
	c-24.183,0.303-47.475,5.277-69.496,15.155c-57.86,25.954-94.667,69.816-110.343,131.311c-1.917,7.522-1.813,7.503-9.66,5.963
	c-6.74-1.322-13.48-2.681-20.264-3.734c-4.1-0.636-5.336-2.205-4.388-6.513c19.596-89.13,91.599-158.018,181.591-173.549
	c11.069-1.91,22.271-2.501,33.453-3.281c2.891-0.202,4.409,0.79,4.304,3.972C860.871,20.733,860.982,25.264,860.983,29.792z"/>
<path fill="#26A9E1" d="M809.566,237.033c0.002-28.646,23.024-51.549,51.804-51.536c28.686,0.013,51.685,23.078,51.617,51.765
	c-0.068,28.309-23.168,51.294-51.569,51.313C832.647,288.593,809.564,265.648,809.566,237.033z"/>
<path fill="#26A9E1" d="M235.414,232.752c-3.875,2.685-7.565,5.606-11.585,7.964c-14.631,8.582-32.57,7.053-42.704-3.369
	c-3.881-3.991-5.883-8.01-3.968-14.033c3.389-10.658,6.038-21.565,8.624-32.457c0.908-3.823,2.951-5.742,6.382-7.184
	c11.592-4.873,23.912-5.308,36.147-6.281c6.27-0.498,6.649-0.836,5.843-7.1c-1.067-8.297-4.532-11.613-12.83-12.797
	c-9.202-1.313-17.886,1.332-27.496,3.439c2.203-8.578,4.268-16.681,6.378-24.771c0.361-1.384,1.502-1.982,2.831-2.19
	c10.945-1.715,21.973-2.81,32.937-0.787c19.162,3.536,29.748,15.881,30.155,36.009c0.468,23.16,0.073,46.336,0.183,69.505
	c0.017,3.571-1.336,4.826-4.808,4.726c-5.787-0.168-11.614-0.416-17.366,0.067c-5.054,0.424-6.899-1.759-7.209-6.315
	C236.822,235.611,236.793,233.926,235.414,232.752z"/>
<path fill="#26A9E1" d="M368.433,375.666c0,26.606-0.124,53.213,0.109,79.817c0.044,5.083-1.533,6.694-6.517,6.463
	c-7.585-0.352-15.202-0.225-22.8-0.038c-3.963,0.097-5.453-1.373-5.447-5.385c0.079-54.117,0.085-108.234-0.009-162.351
	c-0.007-4.117,1.553-5.32,5.472-5.2c7.595,0.232,15.214,0.329,22.799-0.026c4.914-0.23,6.559,1.212,6.51,6.36
	C368.299,322.091,368.433,348.879,368.433,375.666z"/>
<path fill="#26A9E1" d="M575.865,375.066c0,26.959-0.088,53.918,0.087,80.875c0.029,4.469-1.288,6.152-5.844,5.99
	c-7.77-0.277-15.56-0.202-23.336-0.024c-3.935,0.09-5.409-1.297-5.401-5.362c0.098-54.098,0.101-108.196-0.006-162.294
	c-0.008-4.059,1.321-5.406,5.329-5.281c7.773,0.241,15.573,0.369,23.332-0.036c5.08-0.265,5.958,1.83,5.928,6.342
	C575.774,321.872,575.865,348.469,575.865,375.066z"/>
<path fill="#26A9E1" d="M366.431,152.658c0,12.922,0.009,12.898-11.816,8.395c-5.434-2.069-10.968-3.58-16.898-3.392
	c-12.325,0.389-20.786,7.753-22.553,19.998c-1.013,7.015-1.041,14.09-0.202,21.111c1.944,16.278,13.83,24.712,29.993,21.415
	c5.876-1.198,11.425-3.403,16.848-5.904c3.249-1.498,4.717-0.705,4.652,2.991c-0.099,5.612-0.051,11.227-0.016,16.841
	c0.015,2.341-0.527,4.219-2.94,5.251c-18.575,7.947-37.339,10.139-56.135,1.088c-12.682-6.106-20.406-16.575-23.604-30.15
	c-3.067-13.019-3.118-26.317-0.614-39.357c4.555-23.728,22.516-37.969,47.495-38.73c10.115-0.308,19.7,1.855,29.195,5.12
	c5.009,1.723,7.52,4.44,6.642,9.897C366.191,148.997,366.431,150.847,366.431,152.658z"/>
<path fill="#FFFFFF" d="M234.565,206.072c-0.877,3.106,1.788,7.31-2.345,10.497c-5.297,4.085-11.025,6.204-17.638,5.039
	c-4.86-0.857-8.146-3.828-9.161-8.788c-1.323-6.463,0.515-11.523,5.183-14.26c6.984-4.095,14.77-2.527,22.266-2.872
	c1.742-0.08,1.683,1.537,1.691,2.808C234.575,200.845,234.565,203.194,234.565,206.072z"/>
</svg>
